<svg width="22" height="22" viewBox="0 0 22 22" fill="none" xmlns="http://www.w3.org/2000/svg">
<path d="M17.4074 15.9623L12.8699 11.4248L17.4074 6.88821C17.7649 6.52979 17.7649 5.94862 17.4074 5.59112C17.0499 5.23362 16.4692 5.23362 16.1113 5.59112L11.5738 10.1286L7.03719 5.59112C6.67969 5.23362 6.09853 5.23362 5.74103 5.59112C5.38353 5.94862 5.38353 6.52933 5.74103 6.88729L10.2785 11.4248L5.74103 15.9614C5.38353 16.3189 5.38353 16.8996 5.74103 17.2575C6.09853 17.615 6.67923 17.615 7.03719 17.2575L11.5747 12.72L16.1113 17.2575C16.4688 17.615 17.0499 17.615 17.4074 17.2575C17.7659 16.9 17.7659 16.3198 17.4074 15.9623Z" fill="black"/>
</svg>
