<svg width="23" height="23" viewBox="0 0 23 23" fill="none" xmlns="http://www.w3.org/2000/svg">
<g clip-path="url(#clip0_3_36)">
<path d="M11.5 0.479248C5.4146 0.479248 0.479187 5.41467 0.479187 11.5001C0.479187 17.5855 5.4146 22.5209 11.5 22.5209C17.5854 22.5209 22.5209 17.5855 22.5209 11.5001C22.5209 5.41467 17.5854 0.479248 11.5 0.479248ZM16.1959 16.1959C15.7646 16.6272 15.1417 16.6272 14.7104 16.1959L11.5 12.9376L8.24169 16.1959C7.81044 16.6272 7.18752 16.6272 6.75627 16.1959C6.32502 15.7647 6.32502 15.1417 6.75627 14.7105L10.0146 11.4522L6.80419 8.24175C6.37294 7.8105 6.37294 7.18758 6.80419 6.75633C7.23544 6.32508 7.85835 6.32508 8.2896 6.75633L11.5 9.96675L14.7104 6.75633C15.1417 6.32508 15.7646 6.32508 16.1959 6.75633C16.6271 7.18758 16.6271 7.8105 16.1959 8.24175L12.9854 11.4522L16.1959 14.7105C16.6271 15.1417 16.6271 15.8126 16.1959 16.1959Z" fill="#9EA2AF"/>
</g>
<defs>
<clipPath id="clip0_3_36">
<rect width="23" height="23" fill="white"/>
</clipPath>
</defs>
</svg>
