<svg width="23" height="23" viewBox="0 0 23 23" fill="none" xmlns="http://www.w3.org/2000/svg">
<path d="M19.767 10.9172H13.0587V4.20882C13.0587 3.67982 12.6293 3.25049 12.1003 3.25049C11.5713 3.25049 11.142 3.67982 11.142 4.20882V10.9172H4.43368C3.90468 10.9172 3.47534 11.3465 3.47534 11.8755C3.47534 12.4045 3.90468 12.8338 4.43368 12.8338H11.142V19.5422C11.142 20.0712 11.5713 20.5005 12.1003 20.5005C12.6293 20.5005 13.0587 20.0712 13.0587 19.5422V12.8338H19.767C20.296 12.8338 20.7253 12.4045 20.7253 11.8755C20.7253 11.3465 20.296 10.9172 19.767 10.9172Z" fill="black"/>
</svg>
